<?xml version="1.0" encoding="UTF-8" standalone="no"?>
<svg
   viewBox="0 -0.5 128 128"
   shape-rendering="crispEdges"
   version="1.1"
   id="svg8"
   sodipodi:docname="4gize-teletext-original-size.svg"
   inkscape:version="1.3.2 (091e20e, 2023-11-25)"
   xmlns:inkscape="http://www.inkscape.org/namespaces/inkscape"
   xmlns:sodipodi="http://sodipodi.sourceforge.net/DTD/sodipodi-0.dtd"
   xmlns="http://www.w3.org/2000/svg"
   xmlns:svg="http://www.w3.org/2000/svg">
  <defs
     id="defs8" />
  <sodipodi:namedview
     id="namedview8"
     pagecolor="#ffffff"
     bordercolor="#000000"
     borderopacity="0.25"
     inkscape:showpageshadow="2"
     inkscape:pageopacity="0.0"
     inkscape:pagecheckerboard="0"
     inkscape:deskcolor="#d1d1d1"
     inkscape:zoom="1.84375"
     inkscape:cx="64"
     inkscape:cy="64"
     inkscape:window-width="1440"
     inkscape:window-height="847"
     inkscape:window-x="0"
     inkscape:window-y="465"
     inkscape:window-maximized="1"
     inkscape:current-layer="svg8" />
  <metadata
     id="metadata1">Made with Pixels to Svg https://codepen.io/shshaw/pen/XbxvNj</metadata>
  <g
     id="g8">
    <path
       stroke="#000000"
       d="M0 0h3M4 0h10M15 0h1M17 0h34M52 0h1M54 0h14M69 0h21M91 0h29M121 0h1M123 0h5M0 1h2M3 1h28M32 1h1M34 1h8M43 1h26M70 1h19M90 1h20M111 1h1M113 1h15M0 2h23M24 2h1M26 2h15M42 2h1M44 2h7M52 2h1M54 2h34M89 2h13M103 2h8M112 2h16M0 3h24M25 3h17M43 3h1M45 3h15M61 3h16M78 3h32M111 3h1M113 3h15M0 4h15M16 4h7M24 4h1M26 4h17M44 4h1M46 4h13M60 4h1M62 4h14M77 4h1M79 4h49M0 5h14M15 5h29M45 5h13M59 5h1M61 5h1M63 5h12M76 5h1M78 5h45M124 5h1M126 5h1M0 6h6M7 6h6M14 6h43M58 6h1M60 6h1M62 6h14M77 6h20M98 6h26M125 6h1M127 6h1M0 7h5M6 7h1M8 7h48M57 7h1M59 7h1M61 7h28M90 7h6M97 7h1M99 7h6M106 7h1M108 7h15M124 7h1M126 7h1M0 8h4M5 8h1M7 8h24M32 8h25M58 8h1M60 8h28M89 8h1M91 8h6M98 8h8M107 8h21M0 9h3M4 9h1M6 9h25M32 9h8M41 9h1M43 9h1M45 9h13M59 9h28M88 9h1M90 9h1M92 9h13M106 9h1M108 9h20M0 10h4M5 10h10M20 10h8M29 10h2M32 10h2M35 10h6M42 10h1M44 10h23M68 10h1M70 10h18M89 10h1M91 10h1M93 10h35M0 11h14M22 11h7M30 11h3M34 11h6M41 11h1M43 11h1M45 11h23M69 11h20M90 11h1M92 11h1M94 11h34M0 12h13M24 12h43M68 12h1M70 12h20M91 12h1M93 12h23M117 12h11M0 13h12M26 13h52M79 13h1M81 13h10M92 13h6M101 13h14M116 13h1M118 13h10M0 14h12M28 14h68M104 14h10M115 14h1M117 14h1M119 14h9M0 15h11M30 15h25M56 15h22M84 15h11M106 15h9M116 15h1M118 15h1M120 15h8M0 16h11M18 16h2M32 16h4M37 16h1M39 16h1M41 16h5M50 16h4M55 16h1M57 16h18M87 16h8M107 16h9M117 16h1M119 16h1M121 16h7M1 17h1M3 17h8M17 17h1M35 17h7M52 17h3M56 17h17M80 17h4M89 17h4M107 17h10M118 17h1M120 17h8M0 18h1M2 18h8M16 18h1M20 18h2M53 18h18M79 18h3M83 18h2M108 18h10M119 18h8M1 19h1M3 19h7M16 19h1M19 19h1M47 19h4M54 19h16M79 19h2M83 19h2M108 19h20M0 20h10M18 20h1M21 20h4M46 20h6M55 20h15M79 20h2M82 20h3M109 20h19M0 21h10M18 21h1M20 21h6M46 21h2M50 21h2M57 21h4M62 21h7M79 21h6M109 21h19M0 22h10M20 22h2M24 22h2M46 22h2M50 22h2M58 22h11M80 22h4M110 22h3M114 22h14M0 23h11M20 23h2M24 23h2M46 23h6M59 23h3M63 23h5M112 23h3M116 23h12M0 24h11M20 24h6M47 24h4M59 24h9M73 24h4M114 24h7M122 24h6M0 25h12M21 25h4M59 25h9M72 25h6M116 25h4M121 25h1M123 25h5M0 26h13M60 26h8M72 26h3M76 26h2M117 26h4M122 26h1M124 26h4M0 27h15M60 27h9M72 27h2M76 27h2M118 27h4M123 27h5M0 28h2M3 28h14M60 28h9M72 28h2M75 28h3M118 28h10M0 29h3M4 29h15M60 29h10M73 29h4M103 29h1M106 29h2M119 29h9M0 30h4M5 30h15M61 30h9M103 30h1M119 30h9M0 31h20M61 31h10M103 31h1M119 31h9M0 32h13M14 32h1M16 32h5M61 32h10M108 32h1M119 32h9M0 33h20M58 33h1M61 33h11M109 33h1M119 33h9M0 34h21M56 34h1M61 34h11M118 34h7M126 34h1M0 35h20M53 35h2M57 35h1M61 35h11M103 35h1M107 35h1M118 35h8M127 35h1M0 36h21M55 36h1M58 36h1M61 36h11M107 36h1M117 36h8M126 36h1M0 37h21M56 37h1M61 37h10M118 37h8M127 37h1M0 38h7M8 38h1M10 38h1M12 38h1M14 38h6M57 38h1M60 38h11M117 38h8M126 38h1M0 39h8M9 39h1M11 39h1M13 39h7M57 39h1M60 39h8M69 39h2M118 39h10M0 40h7M8 40h1M10 40h1M12 40h1M14 40h6M60 40h10M117 40h11M0 41h19M60 41h10M117 41h11M0 42h19M59 42h11M117 42h4M122 42h6M0 43h19M59 43h11M117 43h3M121 43h7M0 44h19M59 44h11M116 44h12M0 45h19M59 45h9M69 45h2M116 45h12M0 46h11M12 46h1M14 46h5M58 46h13M115 46h8M124 46h4M0 47h20M58 47h13M114 47h8M123 47h1M125 47h3M0 48h2M3 48h8M12 48h1M14 48h6M57 48h15M114 48h7M122 48h1M124 48h1M126 48h2M0 49h21M57 49h15M114 49h8M123 49h1M125 49h3M0 50h21M56 50h18M100 50h1M113 50h10M124 50h4M0 51h22M56 51h8M65 51h1M67 51h12M100 51h1M113 51h15M0 52h24M55 52h10M66 52h24M98 52h1M101 52h1M112 52h6M119 52h9M0 53h27M55 53h9M65 53h1M67 53h24M98 53h1M102 53h2M112 53h5M118 53h1M120 53h8M0 54h6M7 54h23M54 54h11M66 54h27M99 54h1M111 54h7M119 54h9M0 55h5M6 55h1M8 55h24M54 55h2M57 55h7M65 55h1M67 55h28M100 55h2M110 55h18M0 56h4M5 56h1M7 56h1M9 56h6M16 56h5M22 56h12M53 56h2M56 56h9M66 56h31M109 56h19M0 57h3M4 57h1M6 57h1M8 57h6M15 57h5M21 57h1M23 57h13M43 57h1M51 57h13M65 57h1M67 57h32M108 57h2M111 57h17M0 58h4M5 58h1M7 58h14M22 58h1M24 58h15M43 58h1M49 58h16M66 58h9M76 58h1M78 58h1M80 58h1M82 58h1M84 58h17M106 58h3M110 58h18M0 59h5M6 59h16M23 59h19M47 59h17M65 59h1M67 59h9M77 59h1M79 59h1M81 59h1M83 59h19M103 59h1M105 59h20M126 59h2M0 60h75M76 60h1M78 60h1M80 60h1M82 60h1M84 60h44M1 61h92M94 61h20M115 61h10M126 61h2M0 62h1M2 62h90M93 62h1M95 62h18M114 62h1M116 62h12M1 63h16M18 63h11M30 63h19M50 63h43M94 63h1M96 63h16M113 63h1M115 63h1M117 63h11M0 64h11M12 64h4M17 64h1M19 64h9M29 64h1M31 64h17M49 64h1M51 64h43M95 64h1M97 64h7M105 64h8M114 64h1M116 64h12M0 65h10M11 65h4M16 65h1M18 65h1M20 65h7M28 65h1M30 65h19M50 65h45M96 65h7M104 65h1M106 65h8M115 65h13M0 66h9M10 66h4M15 66h1M17 66h1M19 66h9M29 66h34M64 66h20M85 66h1M87 66h1M89 66h15M105 66h23M0 67h4M5 67h8M14 67h1M16 67h1M18 67h44M63 67h1M65 67h63M0 68h12M13 68h1M15 68h1M17 68h36M54 68h1M56 68h5M62 68h1M64 68h1M66 68h17M94 68h31M126 68h2M0 69h13M14 69h1M16 69h20M42 69h20M63 69h1M65 69h1M67 69h14M98 69h26M125 69h1M127 69h1M0 70h14M15 70h19M44 70h9M54 70h1M56 70h7M64 70h1M66 70h1M68 70h7M76 70h4M86 70h4M92 70h1M102 70h21M124 70h1M126 70h2M0 71h33M45 71h19M65 71h1M67 71h1M69 71h9M85 71h6M93 71h1M103 71h1M105 71h1M108 71h14M123 71h1M125 71h3M0 72h32M38 72h4M46 72h19M66 72h1M68 72h6M75 72h3M85 72h2M89 72h2M94 72h1M112 72h3M116 72h7M124 72h4M0 73h23M24 73h1M26 73h4M37 73h3M41 73h2M47 73h19M67 73h10M85 73h2M89 73h2M115 73h13M0 74h27M37 74h2M41 74h2M48 74h29M85 74h6M118 74h10M0 75h22M37 75h2M40 75h3M50 75h4M55 75h21M86 75h4M119 75h9M0 76h3M4 76h8M13 76h7M37 76h6M53 76h23M120 76h8M0 77h2M3 77h1M5 77h13M38 77h4M57 77h19M120 77h8M0 78h3M4 78h12M60 78h16M121 78h7M0 79h14M62 79h14M121 79h3M125 79h3M0 80h13M57 80h2M62 80h13M121 80h4M126 80h2M0 81h12M59 81h1M63 81h12M113 81h1M122 81h6M0 82h11M55 82h2M60 82h1M63 82h12M112 82h1M122 82h6M0 83h10M57 83h1M60 83h1M64 83h4M69 83h6M111 83h1M122 83h6M0 84h10M52 84h4M58 84h1M64 84h3M68 84h7M113 84h4M122 84h6M0 85h1M2 85h7M51 85h3M55 85h2M58 85h1M64 85h2M67 85h7M112 85h6M122 85h6M1 86h8M51 86h2M55 86h2M64 86h10M112 86h2M116 86h2M122 86h6M0 87h6M7 87h1M51 87h2M54 87h3M64 87h10M112 87h2M116 87h2M121 87h4M126 87h2M0 88h8M14 88h1M51 88h6M63 88h10M112 88h6M121 88h3M125 88h3M0 89h8M16 89h1M18 89h1M20 89h1M52 89h4M63 89h10M113 89h4M121 89h7M0 90h8M20 90h1M62 90h10M121 90h7M0 91h9M16 91h1M20 91h1M22 91h1M62 91h10M120 91h8M0 92h9M14 92h1M18 92h1M61 92h10M120 92h8M0 93h10M16 93h1M20 93h1M59 93h12M120 93h8M0 94h10M18 94h1M58 94h13M120 94h8M0 95h2M3 95h7M16 95h1M18 95h1M58 95h13M120 95h6M127 95h1M0 96h9M58 96h13M119 96h6M126 96h1M0 97h9M59 97h6M66 97h6M81 97h2M86 97h1M89 97h3M119 97h7M127 97h1M0 98h8M59 98h7M67 98h5M81 98h2M119 98h9M0 99h8M14 99h1M60 99h13M81 99h1M119 99h9M0 100h8M61 100h12M86 100h1M90 100h1M119 100h9M0 101h8M60 101h11M72 101h2M86 101h1M95 101h1M118 101h10M0 102h9M61 102h11M73 102h2M82 102h1M118 102h10M0 103h11M60 103h13M74 103h2M118 103h10M0 104h2M3 104h1M5 104h8M59 104h18M90 104h1M118 104h5M124 104h1M126 104h1M0 105h3M4 105h12M59 105h19M90 105h1M118 105h6M125 105h1M127 105h1M0 106h2M3 106h1M5 106h13M58 106h22M90 106h1M117 106h6M124 106h1M126 106h1M0 107h19M57 107h10M68 107h1M70 107h1M72 107h1M74 107h1M76 107h6M117 107h11M0 108h20M56 108h12M69 108h1M71 108h1M73 108h1M75 108h9M117 108h11M0 109h14M15 109h5M54 109h13M68 109h1M70 109h1M72 109h1M74 109h1M76 109h11M116 109h12M0 110h13M14 110h1M16 110h5M50 110h41M114 110h14M0 111h14M15 111h6M46 111h49M112 111h16M0 112h7M8 112h14M40 112h23M64 112h36M110 112h11M122 112h6M0 113h6M7 113h1M9 113h13M39 113h13M53 113h11M65 113h39M105 113h1M107 113h13M121 113h1M123 113h5M0 114h5M6 114h1M8 114h1M10 114h13M37 114h46M84 114h1M86 114h33M120 114h1M122 114h1M124 114h4M0 115h6M7 115h1M9 115h1M11 115h5M17 115h8M35 115h49M85 115h33M119 115h1M121 115h1M123 115h5M1 116h6M8 116h1M10 116h1M12 116h5M18 116h9M32 116h51M84 116h1M86 116h31M118 116h1M120 116h1M122 116h5M0 117h8M9 117h1M11 117h13M25 117h48M74 117h30M105 117h1M107 117h1M109 117h9M119 117h1M121 117h7M0 118h9M10 118h15M26 118h32M59 118h1M61 118h11M73 118h20M94 118h25M120 118h8M0 119h41M42 119h1M44 119h48M93 119h1M95 119h33M0 120h42M43 120h15M59 120h1M61 120h32M94 120h1M96 120h32M0 121h41M42 121h1M44 121h50M95 121h1M97 121h31M0 122h42M43 122h52M96 122h32M0 123h3M4 123h12M17 123h1M19 123h1M21 123h1M23 123h18M42 123h1M44 123h38M83 123h1M85 123h29M115 123h8M124 123h1M126 123h2M0 124h4M5 124h12M18 124h1M20 124h1M22 124h11M34 124h8M43 124h8M52 124h61M114 124h1M116 124h8M125 124h3M0 125h16M17 125h1M19 125h1M21 125h1M23 125h9M33 125h8M42 125h1M44 125h8M53 125h12M66 125h1M68 125h1M70 125h1M72 125h10M83 125h1M85 125h18M104 125h10M115 125h8M124 125h1M126 125h2M0 126h66M67 126h1M69 126h1M71 126h53M125 126h3M0 127h10M11 127h54M66 127h1M68 127h1M70 127h1M72 127h24M97 127h1M99 127h24M124 127h1M126 127h2"
       id="path1" />
    <path
       stroke="#ffffff"
       d="M3 0h1M14 0h1M16 0h1M51 0h1M53 0h1M68 0h1M90 0h1M120 0h1M122 0h1M2 1h1M31 1h1M33 1h1M42 1h1M69 1h1M89 1h1M110 1h1M112 1h1M23 2h1M25 2h1M41 2h1M43 2h1M51 2h1M53 2h1M88 2h1M102 2h1M111 2h1M24 3h1M42 3h1M44 3h1M60 3h1M77 3h1M110 3h1M112 3h1M15 4h1M23 4h1M25 4h1M43 4h1M45 4h1M59 4h1M61 4h1M76 4h1M78 4h1M14 5h1M44 5h1M58 5h1M60 5h1M62 5h1M75 5h1M77 5h1M123 5h1M125 5h1M127 5h1M6 6h1M13 6h1M57 6h1M59 6h1M61 6h1M76 6h1M97 6h1M124 6h1M126 6h1M5 7h1M7 7h1M56 7h1M58 7h1M60 7h1M89 7h1M96 7h1M98 7h1M105 7h1M107 7h1M123 7h1M125 7h1M127 7h1M4 8h1M6 8h1M31 8h1M57 8h1M59 8h1M88 8h1M90 8h1M97 8h1M106 8h1M3 9h1M5 9h1M31 9h1M40 9h1M42 9h1M44 9h1M58 9h1M87 9h1M89 9h1M91 9h1M105 9h1M107 9h1M4 10h1M28 10h1M31 10h1M34 10h1M41 10h1M43 10h1M67 10h1M69 10h1M88 10h1M90 10h1M92 10h1M29 11h1M33 11h1M40 11h1M42 11h1M44 11h1M68 11h1M89 11h1M91 11h1M93 11h1M67 12h1M69 12h1M90 12h1M92 12h1M116 12h1M78 13h1M80 13h1M91 13h1M115 13h1M117 13h1M114 14h1M116 14h1M118 14h1M55 15h1M115 15h1M117 15h1M119 15h1M36 16h1M38 16h1M40 16h1M54 16h1M56 16h1M116 16h1M118 16h1M120 16h1M0 17h1M2 17h1M55 17h1M117 17h1M119 17h1M1 18h1M82 18h1M118 18h1M127 18h1M0 19h1M2 19h1M81 19h2M81 20h1M48 21h2M61 21h1M22 22h2M48 22h2M113 22h1M22 23h2M62 23h1M115 23h1M121 24h1M120 25h1M122 25h1M75 26h1M121 26h1M123 26h1M74 27h2M122 27h1M2 28h1M74 28h1M3 29h1M4 30h1M13 32h1M15 32h1M125 34h1M127 34h1M126 35h1M125 36h1M127 36h1M126 37h1M7 38h1M9 38h1M11 38h1M13 38h1M125 38h1M127 38h1M8 39h1M10 39h1M12 39h1M68 39h1M7 40h1M9 40h1M11 40h1M13 40h1M121 42h1M120 43h1M68 45h1M11 46h1M13 46h1M123 46h1M122 47h1M124 47h1M2 48h1M11 48h1M13 48h1M121 48h1M123 48h1M125 48h1M122 49h1M124 49h1M123 50h1M64 51h1M66 51h1M65 52h1M118 52h1M64 53h1M66 53h1M117 53h1M119 53h1M6 54h1M65 54h1M118 54h1M5 55h1M7 55h1M56 55h1M64 55h1M66 55h1M4 56h1M6 56h1M8 56h1M15 56h1M21 56h1M55 56h1M65 56h1M3 57h1M5 57h1M7 57h1M14 57h1M20 57h1M22 57h1M64 57h1M66 57h1M110 57h1M4 58h1M6 58h1M21 58h1M23 58h1M65 58h1M75 58h1M77 58h1M79 58h1M81 58h1M83 58h1M109 58h1M5 59h1M22 59h1M64 59h1M66 59h1M76 59h1M78 59h1M80 59h1M82 59h1M125 59h1M75 60h1M77 60h1M79 60h1M81 60h1M83 60h1M0 61h1M93 61h1M114 61h1M125 61h1M1 62h1M92 62h1M94 62h1M113 62h1M115 62h1M0 63h1M17 63h1M29 63h1M49 63h1M93 63h1M95 63h1M112 63h1M114 63h1M116 63h1M11 64h1M16 64h1M18 64h1M28 64h1M30 64h1M48 64h1M50 64h1M94 64h1M96 64h1M104 64h1M113 64h1M115 64h1M10 65h1M15 65h1M17 65h1M19 65h1M27 65h1M29 65h1M49 65h1M95 65h1M103 65h1M105 65h1M114 65h1M9 66h1M14 66h1M16 66h1M18 66h1M28 66h1M63 66h1M84 66h1M86 66h1M88 66h1M104 66h1M4 67h1M13 67h1M15 67h1M17 67h1M62 67h1M64 67h1M12 68h1M14 68h1M16 68h1M53 68h1M55 68h1M61 68h1M63 68h1M65 68h1M125 68h1M13 69h1M15 69h1M62 69h1M64 69h1M66 69h1M124 69h1M126 69h1M14 70h1M53 70h1M55 70h1M63 70h1M65 70h1M67 70h1M75 70h1M123 70h1M125 70h1M64 71h1M66 71h1M68 71h1M122 71h1M124 71h1M65 72h1M67 72h1M74 72h1M87 72h2M115 72h1M123 72h1M23 73h1M25 73h1M40 73h1M66 73h1M87 73h2M39 74h2M39 75h1M54 75h1M3 76h1M12 76h1M2 77h1M4 77h1M3 78h1M124 79h1M125 80h1M68 83h1M67 84h1M1 85h1M54 85h1M66 85h1M0 86h1M53 86h2M114 86h2M6 87h1M53 87h1M114 87h2M125 87h1M124 88h1M2 95h1M126 95h1M125 96h1M127 96h1M65 97h1M126 97h1M66 98h1M71 101h1M72 102h1M73 103h1M2 104h1M4 104h1M123 104h1M125 104h1M127 104h1M3 105h1M117 105h1M124 105h1M126 105h1M2 106h1M4 106h1M123 106h1M125 106h1M127 106h1M67 107h1M69 107h1M71 107h1M73 107h1M75 107h1M68 108h1M70 108h1M72 108h1M74 108h1M14 109h1M67 109h1M69 109h1M71 109h1M73 109h1M75 109h1M13 110h1M15 110h1M14 111h1M7 112h1M63 112h1M121 112h1M6 113h1M8 113h1M52 113h1M64 113h1M120 113h1M122 113h1M5 114h1M7 114h1M9 114h1M83 114h1M85 114h1M119 114h1M121 114h1M123 114h1M6 115h1M8 115h1M10 115h1M16 115h1M84 115h1M118 115h1M120 115h1M122 115h1M0 116h1M7 116h1M9 116h1M11 116h1M17 116h1M83 116h1M85 116h1M117 116h1M119 116h1M121 116h1M127 116h1M8 117h1M10 117h1M24 117h1M73 117h1M104 117h1M106 117h1M108 117h1M118 117h1M120 117h1M9 118h1M25 118h1M58 118h1M60 118h1M72 118h1M93 118h1M119 118h1M41 119h1M43 119h1M92 119h1M94 119h1M42 120h1M58 120h1M60 120h1M93 120h1M95 120h1M41 121h1M43 121h1M94 121h1M96 121h1M42 122h1M95 122h1M3 123h1M16 123h1M18 123h1M20 123h1M22 123h1M41 123h1M43 123h1M82 123h1M84 123h1M114 123h1M123 123h1M125 123h1M4 124h1M17 124h1M19 124h1M21 124h1M33 124h1M42 124h1M51 124h1M113 124h1M115 124h1M124 124h1M16 125h1M18 125h1M20 125h1M22 125h1M32 125h1M41 125h1M43 125h1M52 125h1M65 125h1M67 125h1M69 125h1M71 125h1M82 125h1M84 125h1M103 125h1M114 125h1M123 125h1M125 125h1M66 126h1M68 126h1M70 126h1M124 126h1M10 127h1M65 127h1M67 127h1M69 127h1M71 127h1M96 127h1M98 127h1M123 127h1M125 127h1"
       id="path2" />
    <path
       stroke="#ff0000"
       d="M15 10h5M14 11h8M13 12h11M12 13h14M12 14h16M11 15h19M11 16h7M20 16h12M46 16h4M11 17h6M18 17h17M42 17h10M10 18h6M17 18h3M22 18h31M10 19h6M17 19h2M20 19h27M51 19h3M10 20h8M19 20h2M25 20h21M52 20h3M10 21h8M19 21h1M26 21h20M52 21h5M100 21h4M10 22h10M26 22h20M52 22h6M97 22h8M11 23h9M26 23h4M34 23h12M52 23h7M92 23h14M11 24h9M26 24h3M35 24h12M51 24h8M83 24h23M12 25h9M25 25h3M38 25h21M82 25h24M13 26h15M42 26h18M81 26h25M15 27h13M48 27h12M81 27h25M17 28h11M49 28h11M81 28h24M19 29h9M50 29h10M81 29h22M20 30h8M50 30h11M81 30h19M20 31h8M50 31h11M81 31h14M21 32h7M50 32h11M81 32h11M20 33h8M49 33h9M59 33h2M81 33h9M21 34h7M36 34h1M48 34h8M57 34h4M81 34h9M20 35h8M36 35h17M55 35h2M58 35h3M81 35h9M21 36h7M36 36h19M56 36h2M59 36h2M81 36h9M21 37h7M36 37h9M47 37h1M50 37h1M54 37h2M57 37h4M82 37h8M20 38h8M38 38h1M41 38h1M44 38h1M55 38h2M58 38h2M82 38h9M92 38h2M95 38h2M98 38h2M20 39h8M56 39h1M58 39h2M82 39h21M20 40h8M56 40h4M82 40h23M19 41h9M56 41h4M82 41h24M19 42h9M56 42h3M82 42h25M19 43h9M55 43h4M82 43h26M19 44h9M54 44h5M82 44h27M19 45h9M49 45h10M82 45h28M19 46h9M36 46h7M44 46h14M82 46h8M97 46h13M20 47h8M36 47h7M44 47h14M82 47h8M99 47h11M20 48h8M36 48h7M44 48h13M81 48h9M101 48h9M21 49h7M36 49h7M44 49h13M81 49h9M102 49h8M21 50h7M36 50h7M44 50h12M81 50h9M103 50h6M22 51h6M36 51h7M44 51h12M81 51h9M104 51h4M24 52h4M36 52h7M44 52h11M27 53h1M36 53h7M44 53h11M36 54h7M44 54h10M36 55h18M36 56h17M36 57h7M44 57h7M39 58h4M44 58h5M42 59h5"
       id="path3" />
    <path
       stroke="#00ffff"
       d="M98 13h3M96 14h8M78 15h6M95 15h11M75 16h12M95 16h12M73 17h7M84 17h5M93 17h14M71 18h8M85 18h23M70 19h9M85 19h23M70 20h9M85 20h24M69 21h10M85 21h15M104 21h5M69 22h11M84 22h13M105 22h5M68 23h24M106 23h6M68 24h5M77 24h6M106 24h8M68 25h4M78 25h4M106 25h10M68 26h4M78 26h3M106 26h11M69 27h3M78 27h3M106 27h12M69 28h3M78 28h3M105 28h13M70 29h3M77 29h4M104 29h2M108 29h11M70 30h11M100 30h3M104 30h15M71 31h10M95 31h8M104 31h15M71 32h10M92 32h16M109 32h10M72 33h9M90 33h19M110 33h9M72 34h9M90 34h28M72 35h9M90 35h13M104 35h3M108 35h10M72 36h9M90 36h17M108 36h9M71 37h11M90 37h28M71 38h11M91 38h1M94 38h1M97 38h1M100 38h17M71 39h11M103 39h15M70 40h12M105 40h12M70 41h12M106 41h11M70 42h12M107 42h10M70 43h12M108 43h9M70 44h12M109 44h7M71 45h11M110 45h6M71 46h11M90 46h7M110 46h5M71 47h11M90 47h9M110 47h4M72 48h9M90 48h11M110 48h4M72 49h9M90 49h12M110 49h4M74 50h7M90 50h10M101 50h2M109 50h4M79 51h2M90 51h10M101 51h3M108 51h5M90 52h8M99 52h2M102 52h10M91 53h7M99 53h3M104 53h8M93 54h6M100 54h11M95 55h5M102 55h8M97 56h12M99 57h9M101 58h5M102 59h1M104 59h1"
       id="path4" />
    <path
       stroke="#0000ff"
       d="M30 23h4M29 24h6M28 25h10M28 26h14M28 27h20M28 28h21M28 29h22M28 30h22M28 31h22M28 32h22M28 33h21M28 34h8M37 34h11M28 35h8M28 36h8M28 37h8M45 37h2M48 37h2M51 37h3M28 38h10M39 38h2M42 38h2M45 38h10M28 39h28M28 40h28M28 41h28M28 42h28M28 43h27M28 44h26M28 45h21M28 46h8M43 46h1M28 47h8M43 47h1M28 48h8M43 48h1M28 49h8M43 49h1M28 50h8M43 50h1M28 51h8M43 51h1M28 52h8M43 52h1M28 53h8M43 53h1M30 54h6M43 54h1M32 55h4M34 56h2"
       id="path5" />
    <path
       stroke="#ff00ff"
       d="M83 68h11M81 69h17M80 70h6M90 70h2M93 70h9M78 71h7M91 71h2M94 71h9M104 71h1M106 71h2M78 72h7M91 72h3M95 72h17M77 73h8M91 73h24M77 74h8M91 74h27M76 75h10M90 75h29M76 76h44M76 77h44M76 78h10M93 78h28M76 79h9M100 79h21M40 80h5M75 80h9M107 80h14M18 81h6M37 81h9M75 81h9M108 81h5M114 81h8M17 82h30M75 82h9M109 82h3M113 82h9M16 83h31M75 83h9M109 83h2M112 83h10M16 84h31M75 84h10M109 84h4M117 84h5M16 85h31M74 85h12M109 85h3M118 85h4M16 86h31M74 86h16M110 86h2M118 86h4M17 87h30M74 87h24M110 87h2M118 87h3M18 88h29M73 88h28M110 88h2M118 88h3M21 89h2M24 89h2M27 89h2M30 89h2M33 89h2M36 89h2M39 89h8M73 89h6M82 89h1M85 89h1M88 89h1M91 89h1M94 89h1M97 89h1M100 89h1M110 89h3M117 89h4M39 90h9M72 90h6M110 90h11M32 91h16M72 91h5M110 91h10M25 92h23M71 92h6M110 92h10M23 93h25M71 93h6M110 93h10M21 94h27M71 94h6M110 94h10M19 95h29M71 95h7M111 95h9M18 96h30M71 96h9M111 96h8M17 97h31M72 97h9M83 97h3M87 97h2M92 97h10M111 97h8M16 98h33M72 98h9M83 98h20M112 98h7M16 99h33M73 99h8M82 99h21M112 99h7M16 100h13M39 100h10M73 100h13M87 100h3M91 100h12M112 100h7M16 101h11M40 101h9M74 101h12M87 101h8M96 101h8M113 101h5M17 102h9M40 102h9M75 102h7M83 102h21M113 102h5M18 103h6M40 103h10M76 103h28M114 103h4M41 104h9M77 104h13M91 104h13M114 104h4M41 105h10M78 105h12M91 105h14M115 105h2M41 106h10M80 106h10M91 106h14M116 106h1M41 107h11M82 107h24M42 108h12M84 108h22M42 109h12M87 109h20M42 110h8M91 110h16M42 111h4M95 111h13M100 112h9M104 113h1M106 113h1"
       id="path6" />
    <path
       stroke="#ffff00"
       d="M36 69h6M34 70h10M33 71h12M32 72h6M42 72h4M30 73h7M43 73h4M27 74h10M43 74h5M22 75h15M43 75h7M20 76h17M43 76h10M18 77h20M42 77h15M16 78h44M14 79h48M13 80h27M45 80h12M59 80h3M12 81h6M24 81h13M46 81h13M60 81h3M11 82h6M47 82h8M57 82h3M61 82h2M10 83h6M47 83h10M58 83h2M61 83h3M10 84h6M47 84h5M56 84h2M59 84h5M9 85h7M47 85h4M57 85h1M59 85h5M9 86h7M47 86h4M57 86h7M8 87h9M47 87h4M57 87h7M8 88h6M15 88h3M47 88h4M57 88h6M8 89h8M17 89h1M19 89h1M23 89h1M26 89h1M29 89h1M32 89h1M35 89h1M38 89h1M47 89h5M56 89h7M8 90h12M21 90h18M48 90h14M9 91h7M17 91h3M21 91h1M23 91h9M48 91h14M9 92h5M15 92h3M19 92h6M48 92h13M10 93h6M17 93h3M21 93h2M48 93h11M10 94h8M19 94h2M48 94h10M10 95h6M17 95h1M48 95h10M9 96h9M48 96h10M9 97h8M48 97h11M8 98h8M49 98h10M8 99h6M15 99h1M49 99h11M8 100h8M29 100h10M49 100h12M8 101h8M27 101h13M49 101h11M9 102h8M26 102h14M49 102h12M11 103h7M24 103h16M50 103h10M13 104h28M50 104h9M16 105h25M51 105h8M18 106h23M51 106h7M19 107h22M52 107h5M20 108h22M54 108h2M20 109h22M21 110h21M21 111h21M22 112h18M22 113h17M23 114h14M25 115h10M27 116h5"
       id="path7" />
    <path
       stroke="#00ff00"
       d="M86 78h7M85 79h15M84 80h23M84 81h24M84 82h25M84 83h25M85 84h24M86 85h23M90 86h20M98 87h12M101 88h9M79 89h3M83 89h2M86 89h2M89 89h2M92 89h2M95 89h2M98 89h2M101 89h9M78 90h32M77 91h33M77 92h33M77 93h33M77 94h33M78 95h33M80 96h31M102 97h9M103 98h9M103 99h9M103 100h9M104 101h9M104 102h9M104 103h10M104 104h10M105 105h10M105 106h11M106 107h11M106 108h11M107 109h9M107 110h7M108 111h4M109 112h1"
       id="path8" />
  </g>
</svg>
