<svg xmlns="http://www.w3.org/2000/svg" viewBox="0 -0.5 192 30" shape-rendering="crispEdges">
<metadata>Made with Pixels to Svg https://codepen.io/shshaw/pen/XbxvNj</metadata>
<path stroke="#fff1e8" d="M4 3h20M31 3h20M58 3h22M85 3h20M112 3h22M139 3h22M166 3h20M3 4h1M24 4h2M30 4h1M51 4h2M57 4h1M80 4h1M84 4h1M105 4h2M111 4h1M134 4h1M138 4h1M161 4h1M165 4h1M186 4h2M26 6h1M53 6h1M107 6h1M188 6h1M33 11h1M6 12h18M34 12h17M87 12h18M51 13h2M53 15h1M138 20h3M159 20h3M30 21h3M186 21h3M6 23h1M33 23h1M50 23h1M168 23h1M185 23h1M7 24h17M34 24h16M60 24h3M66 24h6M75 24h3M114 24h3M120 24h6M129 24h3M141 24h3M147 24h6M156 24h3M169 24h16" />
<path stroke="#ff77a8" d="M4 4h20M3 5h23M3 6h23M3 7h3M23 7h4M3 8h3M24 8h3M3 9h3M24 9h3M3 10h3M24 10h3M3 11h3M24 11h3M3 12h3M24 12h3M3 13h24M3 14h24M3 15h24M3 16h3M24 16h3M3 17h3M24 17h3M3 18h3M24 18h3M3 19h3M24 19h3M3 20h3M24 20h3M3 21h3M24 21h3M3 22h3M24 22h3M3 23h3M24 23h3M3 24h4M24 24h3M4 25h23M4 26h23M6 27h20" />
<path stroke="#ffa300" d="M31 4h20M30 5h23M30 6h23M30 7h3M50 7h4M30 8h3M51 8h3M30 9h3M51 9h3M30 10h3M30 11h3M30 12h4M31 13h20M31 14h22M33 15h20M50 16h4M51 17h3M51 18h3M51 19h3M51 20h3M51 21h3M30 22h3M51 22h3M30 23h3M51 23h3M30 24h4M50 24h4M31 25h23M31 26h23M33 27h20" />
<path stroke="#29adff" d="M58 4h22M57 5h24M57 6h24M57 7h3M63 7h3M72 7h3M78 7h3M63 8h3M72 8h3M63 9h3M72 9h3M63 10h3M72 10h3M63 11h3M72 11h3M63 12h3M72 12h3M63 13h3M72 13h3M63 14h3M72 14h3M63 15h3M72 15h3M63 16h3M72 16h3M63 17h3M72 17h3M63 18h3M72 18h3M63 19h3M72 19h3M63 20h3M72 20h3M63 21h3M72 21h3M63 22h3M72 22h3M63 23h3M72 23h3M63 24h3M72 24h3M60 25h18M60 26h18M61 27h16" />
<path stroke="#00e436" d="M85 4h20M84 5h23M84 6h23M84 7h3M104 7h4M84 8h3M105 8h3M84 9h3M105 9h3M84 10h3M105 10h3M84 11h3M105 11h3M84 12h3M105 12h3M84 13h24M84 14h24M84 15h24M84 16h3M105 16h3M84 17h3M105 17h3M84 18h3M105 18h3M84 19h3M105 19h3M84 20h3M105 20h3M84 21h3M105 21h3M84 22h3M105 22h3M84 23h3M105 23h3M84 24h3M105 24h3M84 25h3M105 25h3M84 26h3M105 26h3M85 27h2M105 27h2" />
<path stroke="#ffec27" d="M112 4h22M111 5h24M111 6h24M111 7h3M117 7h3M126 7h3M132 7h3M117 8h3M126 8h3M117 9h3M126 9h3M117 10h3M126 10h3M117 11h3M126 11h3M117 12h3M126 12h3M117 13h3M126 13h3M117 14h3M126 14h3M117 15h3M126 15h3M117 16h3M126 16h3M117 17h3M126 17h3M117 18h3M126 18h3M117 19h3M126 19h3M117 20h3M126 20h3M117 21h3M126 21h3M117 22h3M126 22h3M117 23h3M126 23h3M117 24h3M126 24h3M114 25h18M114 26h18M115 27h16" />
<path stroke="#ff004d" d="M139 4h22M138 5h24M138 6h24M138 7h3M144 7h3M153 7h3M159 7h3M138 8h3M144 8h3M153 8h3M159 8h3M138 9h3M144 9h3M153 9h3M159 9h3M138 10h3M144 10h3M153 10h3M159 10h3M144 11h3M153 11h3M144 12h3M153 12h3M144 13h3M153 13h3M144 14h3M153 14h3M144 15h3M153 15h3M144 16h3M153 16h3M144 17h3M153 17h3M144 18h3M153 18h3M144 19h3M153 19h3M144 20h3M153 20h3M138 21h3M144 21h3M153 21h3M159 21h3M138 22h3M144 22h3M153 22h3M159 22h3M138 23h3M144 23h3M153 23h3M159 23h3M138 24h3M144 24h3M153 24h3M159 24h3M138 25h24M138 26h24M139 27h22" />
<path stroke="#83769c" d="M166 4h20M165 5h23M165 6h23M165 7h3M185 7h4M165 8h3M186 8h3M165 9h3M186 9h3M165 10h3M165 11h3M165 12h3M165 13h3M165 14h3M165 15h3M165 16h3M165 17h3M165 18h3M165 19h3M165 20h3M165 21h3M165 22h3M186 22h3M165 23h3M186 23h3M165 24h4M185 24h4M166 25h23M166 26h23M168 27h20" />
</svg>