<?xml version="1.0" encoding="UTF-8" standalone="no"?>
<svg
   viewBox="0 -0.5 2688 2688"
   shape-rendering="crispEdges"
   version="1.1"
   id="svg8"
   sodipodi:docname="sound-sample.svg"
   inkscape:version="1.3.2 (091e20e, 2023-11-25)"
   xml:space="preserve"
   width="2688"
   height="2688"
   xmlns:inkscape="http://www.inkscape.org/namespaces/inkscape"
   xmlns:sodipodi="http://sodipodi.sourceforge.net/DTD/sodipodi-0.dtd"
   xmlns="http://www.w3.org/2000/svg"
   xmlns:svg="http://www.w3.org/2000/svg"><defs
     id="defs8" /><sodipodi:namedview
     id="namedview8"
     pagecolor="#ffffff"
     bordercolor="#000000"
     borderopacity="0.25"
     inkscape:showpageshadow="2"
     inkscape:pageopacity="0.0"
     inkscape:pagecheckerboard="0"
     inkscape:deskcolor="#d1d1d1"
     inkscape:zoom="1.84375"
     inkscape:cx="64"
     inkscape:cy="64"
     inkscape:window-width="1440"
     inkscape:window-height="847"
     inkscape:window-x="0"
     inkscape:window-y="465"
     inkscape:window-maximized="1"
     inkscape:current-layer="svg8"><inkscape:page
       x="0"
       y="0"
       width="2688"
       height="2688"
       id="page1"
       margin="0"
       bleed="0" /></sodipodi:namedview><metadata
     id="metadata1">Made with Pixels to Svg https://codepen.io/shshaw/pen/XbxvNj</metadata><g
     id="g8"
     transform="matrix(21,0,0,21,0,10)"><path
       stroke="#000000"
       d="m 0,0 h 3 m 1,0 h 10 m 1,0 h 1 m 1,0 h 34 m 1,0 h 1 m 1,0 h 14 m 1,0 h 21 m 1,0 h 29 m 1,0 h 1 m 1,0 h 5 M 0,1 h 2 m 1,0 h 28 m 1,0 h 1 m 1,0 h 8 m 1,0 h 26 m 1,0 h 19 m 1,0 h 20 m 1,0 h 1 m 1,0 h 15 M 0,2 h 23 m 1,0 h 1 m 1,0 h 15 m 1,0 h 1 m 1,0 h 7 m 1,0 h 1 m 1,0 h 34 m 1,0 h 13 m 1,0 h 8 m 1,0 h 16 M 0,3 h 24 m 1,0 h 17 m 1,0 h 1 m 1,0 h 15 m 1,0 h 16 m 1,0 h 32 m 1,0 h 1 m 1,0 h 15 M 0,4 h 15 m 1,0 h 7 m 1,0 h 1 m 1,0 h 17 m 1,0 h 1 m 1,0 h 13 m 1,0 h 1 m 1,0 h 14 m 1,0 h 1 m 1,0 h 49 M 0,5 h 14 m 1,0 h 29 m 1,0 h 13 m 1,0 h 1 m 1,0 h 1 m 1,0 h 12 m 1,0 h 1 m 1,0 h 45 m 1,0 h 1 m 1,0 h 1 M 0,6 h 6 m 1,0 h 6 m 1,0 h 43 m 1,0 h 1 m 1,0 h 1 m 1,0 h 14 m 1,0 h 20 m 1,0 h 26 m 1,0 h 1 m 1,0 h 1 M 0,7 h 5 m 1,0 h 1 m 1,0 h 48 m 1,0 h 1 m 1,0 h 1 m 1,0 h 28 m 1,0 h 6 m 1,0 h 1 m 1,0 h 6 m 1,0 h 1 m 1,0 h 15 m 1,0 h 1 m 1,0 h 1 M 0,8 h 4 m 1,0 h 1 m 1,0 h 24 m 1,0 h 25 m 1,0 h 1 m 1,0 h 28 m 1,0 h 1 m 1,0 h 6 m 1,0 h 8 m 1,0 h 21 M 0,9 h 3 m 1,0 h 1 m 1,0 h 25 m 1,0 h 8 m 1,0 h 1 m 1,0 h 1 m 1,0 h 13 m 1,0 h 28 m 1,0 h 1 m 1,0 h 1 m 1,0 h 13 m 1,0 h 1 m 1,0 h 20 M 0,10 h 4 m 1,0 h 10 m 5,0 h 8 m 1,0 h 2 m 1,0 h 2 m 1,0 h 6 m 1,0 h 1 m 1,0 h 23 m 1,0 h 1 m 1,0 h 18 m 1,0 h 1 m 1,0 h 1 m 1,0 h 35 M 0,11 h 14 m 8,0 h 7 m 1,0 h 3 m 1,0 h 6 m 1,0 h 1 m 1,0 h 1 m 1,0 h 23 m 1,0 h 20 m 1,0 h 1 m 1,0 h 1 m 1,0 h 34 M 0,12 h 13 m 11,0 h 43 m 1,0 h 1 m 1,0 h 20 m 1,0 h 1 m 1,0 h 23 m 1,0 h 11 M 0,13 h 12 m 14,0 h 52 m 1,0 h 1 m 1,0 h 10 m 1,0 h 6 m 3,0 h 14 m 1,0 h 1 m 1,0 h 10 M 0,14 h 12 m 16,0 h 68 m 8,0 h 10 m 1,0 h 1 m 1,0 h 1 m 1,0 h 9 M 0,15 h 11 m 19,0 h 25 m 1,0 h 22 m 6,0 h 11 m 11,0 h 9 m 1,0 h 1 m 1,0 h 1 m 1,0 h 8 M 0,16 h 11 m 7,0 h 2 m 12,0 h 4 m 1,0 h 1 m 1,0 h 1 m 1,0 h 5 m 4,0 h 4 m 1,0 h 1 m 1,0 h 18 m 12,0 h 8 m 12,0 h 9 m 1,0 h 1 m 1,0 h 1 m 1,0 h 7 M 1,17 h 1 m 1,0 h 8 m 6,0 h 1 m 17,0 h 7 m 10,0 h 3 m 1,0 h 17 m 7,0 h 4 m 5,0 h 4 m 14,0 h 10 m 1,0 h 1 m 1,0 h 8 M 0,18 h 1 m 1,0 h 8 m 6,0 h 1 m 3,0 h 2 m 31,0 h 18 m 8,0 h 3 m 1,0 h 2 m 23,0 h 10 m 1,0 h 8 M 1,19 h 1 m 1,0 h 7 m 6,0 h 1 m 2,0 h 1 m 27,0 h 4 m 3,0 h 16 m 9,0 h 2 m 2,0 h 2 m 23,0 h 20 M 0,20 h 10 m 8,0 h 1 m 2,0 h 4 m 21,0 h 6 m 3,0 h 15 m 9,0 h 2 m 1,0 h 3 m 24,0 h 19 M 0,21 h 10 m 8,0 h 1 m 1,0 h 6 m 20,0 h 2 m 2,0 h 2 m 5,0 h 4 m 1,0 h 7 m 10,0 h 6 m 24,0 h 19 M 0,22 h 10 m 10,0 h 2 m 2,0 h 2 m 20,0 h 2 m 2,0 h 2 m 6,0 h 11 m 11,0 h 4 m 26,0 h 3 m 1,0 h 14 M 0,23 h 11 m 9,0 h 2 m 2,0 h 2 m 20,0 h 6 m 7,0 h 3 m 1,0 h 5 m 44,0 h 3 m 1,0 h 12 M 0,24 h 11 m 9,0 h 6 m 21,0 h 4 m 8,0 h 9 m 5,0 h 4 m 37,0 h 7 m 1,0 h 6 M 0,25 h 12 m 9,0 h 4 m 34,0 h 9 m 4,0 h 6 m 38,0 h 4 m 1,0 h 1 m 1,0 h 5 M 0,26 h 13 m 47,0 h 8 m 4,0 h 3 m 1,0 h 2 m 39,0 h 4 m 1,0 h 1 m 1,0 h 4 M 0,27 h 15 m 45,0 h 9 m 3,0 h 2 m 2,0 h 2 m 40,0 h 4 m 1,0 h 5 M 0,28 h 2 m 1,0 h 14 m 43,0 h 9 m 3,0 h 2 m 1,0 h 3 m 40,0 h 10 M 0,29 h 3 m 1,0 h 15 m 41,0 h 10 m 3,0 h 4 m 26,0 h 1 m 2,0 h 2 m 11,0 h 9 M 0,30 h 4 m 1,0 h 15 m 41,0 h 9 m 33,0 h 1 m 15,0 h 9 M 0,31 h 20 m 41,0 h 10 m 32,0 h 1 m 15,0 h 9 M 0,32 h 13 m 1,0 h 1 m 1,0 h 5 m 40,0 h 10 m 37,0 h 1 m 10,0 h 9 M 0,33 h 20 m 38,0 h 1 m 2,0 h 11 m 37,0 h 1 m 9,0 h 9 M 0,34 h 21 m 35,0 h 1 m 4,0 h 11 m 46,0 h 7 m 1,0 h 1 M 0,35 h 20 m 33,0 h 2 m 2,0 h 1 m 3,0 h 11 m 31,0 h 1 m 3,0 h 1 m 10,0 h 8 m 1,0 h 1 M 0,36 h 21 m 34,0 h 1 m 2,0 h 1 m 2,0 h 11 m 35,0 h 1 m 9,0 h 8 m 1,0 h 1 M 0,37 h 21 m 35,0 h 1 m 4,0 h 10 m 47,0 h 8 m 1,0 h 1 M 0,38 h 7 m 1,0 h 1 m 1,0 h 1 m 1,0 h 1 m 1,0 h 6 m 37,0 h 1 m 2,0 h 11 m 46,0 h 8 m 1,0 h 1 M 0,39 h 8 m 1,0 h 1 m 1,0 h 1 m 1,0 h 7 m 37,0 h 1 m 2,0 h 8 m 1,0 h 2 m 47,0 h 10 M 0,40 h 7 m 1,0 h 1 m 1,0 h 1 m 1,0 h 1 m 1,0 h 6 m 40,0 h 10 m 47,0 h 11 M 0,41 h 19 m 41,0 h 10 m 47,0 h 11 M 0,42 h 19 m 40,0 h 11 m 47,0 h 4 m 1,0 h 6 M 0,43 h 19 m 40,0 h 11 m 47,0 h 3 m 1,0 h 7 M 0,44 h 19 m 40,0 h 11 m 46,0 h 12 M 0,45 h 19 m 40,0 h 9 m 1,0 h 2 m 45,0 h 12 M 0,46 h 11 m 1,0 h 1 m 1,0 h 5 m 39,0 h 13 m 44,0 h 8 m 1,0 h 4 M 0,47 h 20 m 38,0 h 13 m 43,0 h 8 m 1,0 h 1 m 1,0 h 3 M 0,48 h 2 m 1,0 h 8 m 1,0 h 1 m 1,0 h 6 m 37,0 h 15 m 42,0 h 7 m 1,0 h 1 m 1,0 h 1 m 1,0 h 2 M 0,49 h 21 m 36,0 h 15 m 42,0 h 8 m 1,0 h 1 m 1,0 h 3 M 0,50 h 21 m 35,0 h 18 m 26,0 h 1 m 12,0 h 10 m 1,0 h 4 M 0,51 h 22 m 34,0 h 8 m 1,0 h 1 m 1,0 h 12 m 21,0 h 1 m 12,0 h 15 M 0,52 h 24 m 31,0 h 10 m 1,0 h 24 m 8,0 h 1 m 2,0 h 1 m 10,0 h 6 m 1,0 h 9 M 0,53 h 27 m 28,0 h 9 m 1,0 h 1 m 1,0 h 24 m 7,0 h 1 m 3,0 h 2 m 8,0 h 5 m 1,0 h 1 m 1,0 h 8 M 0,54 h 6 m 1,0 h 23 m 24,0 h 11 m 1,0 h 27 m 6,0 h 1 m 11,0 h 7 m 1,0 h 9 M 0,55 h 5 m 1,0 h 1 m 1,0 h 24 m 22,0 h 2 m 1,0 h 7 m 1,0 h 1 m 1,0 h 28 m 5,0 h 2 m 8,0 h 18 M 0,56 h 4 m 1,0 h 1 m 1,0 h 1 m 1,0 h 6 m 1,0 h 5 m 1,0 h 12 m 19,0 h 2 m 1,0 h 9 m 1,0 h 31 m 12,0 h 19 M 0,57 h 3 m 1,0 h 1 m 1,0 h 1 m 1,0 h 6 m 1,0 h 5 m 1,0 h 1 m 1,0 h 13 m 7,0 h 1 m 7,0 h 13 m 1,0 h 1 m 1,0 h 32 m 9,0 h 2 m 1,0 h 17 M 0,58 h 4 m 1,0 h 1 m 1,0 h 14 m 1,0 h 1 m 1,0 h 15 m 4,0 h 1 m 5,0 h 16 m 1,0 h 9 m 1,0 h 1 m 1,0 h 1 m 1,0 h 1 m 1,0 h 1 m 1,0 h 17 m 5,0 h 3 m 1,0 h 18 M 0,59 h 5 m 1,0 h 16 m 1,0 h 19 m 5,0 h 17 m 1,0 h 1 m 1,0 h 9 m 1,0 h 1 m 1,0 h 1 m 1,0 h 1 m 1,0 h 19 m 1,0 h 1 m 1,0 h 20 m 1,0 h 2 M 0,60 h 75 m 1,0 h 1 m 1,0 h 1 m 1,0 h 1 m 1,0 h 1 m 1,0 h 44 M 1,61 h 92 m 1,0 h 20 m 1,0 h 10 m 1,0 h 2 M 0,62 h 1 m 1,0 h 90 m 1,0 h 1 m 1,0 h 18 m 1,0 h 1 m 1,0 h 12 M 1,63 h 16 m 1,0 h 11 m 1,0 h 19 m 1,0 h 43 m 1,0 h 1 m 1,0 h 16 m 1,0 h 1 m 1,0 h 1 m 1,0 h 11 M 0,64 h 11 m 1,0 h 4 m 1,0 h 1 m 1,0 h 9 m 1,0 h 1 m 1,0 h 17 m 1,0 h 1 m 1,0 h 43 m 1,0 h 1 m 1,0 h 7 m 1,0 h 8 m 1,0 h 1 m 1,0 h 12 M 0,65 h 10 m 1,0 h 4 m 1,0 h 1 m 1,0 h 1 m 1,0 h 7 m 1,0 h 1 m 1,0 h 19 m 1,0 h 45 m 1,0 h 7 m 1,0 h 1 m 1,0 h 8 m 1,0 h 13 M 0,66 h 9 m 1,0 h 4 m 1,0 h 1 m 1,0 h 1 m 1,0 h 9 m 1,0 h 34 m 1,0 h 20 m 1,0 h 1 m 1,0 h 1 m 1,0 h 15 m 1,0 h 23 M 0,67 h 4 m 1,0 h 8 m 1,0 h 1 m 1,0 h 1 m 1,0 h 44 m 1,0 h 1 m 1,0 h 63 M 0,68 h 12 m 1,0 h 1 m 1,0 h 1 m 1,0 h 36 m 1,0 h 1 m 1,0 h 5 m 1,0 h 1 m 1,0 h 1 m 1,0 h 17 m 11,0 h 31 m 1,0 h 2 M 0,69 h 13 m 1,0 h 1 m 1,0 h 20 m 6,0 h 20 m 1,0 h 1 m 1,0 h 1 m 1,0 h 14 m 17,0 h 26 m 1,0 h 1 m 1,0 h 1 M 0,70 h 14 m 1,0 h 19 m 10,0 h 9 m 1,0 h 1 m 1,0 h 7 m 1,0 h 1 m 1,0 h 1 m 1,0 h 7 m 1,0 h 4 m 6,0 h 4 m 2,0 h 1 m 9,0 h 21 m 1,0 h 1 m 1,0 h 2 M 0,71 h 33 m 12,0 h 19 m 1,0 h 1 m 1,0 h 1 m 1,0 h 9 m 7,0 h 6 m 2,0 h 1 m 9,0 h 1 m 1,0 h 1 m 2,0 h 14 m 1,0 h 1 m 1,0 h 3 M 0,72 h 32 m 6,0 h 4 m 4,0 h 19 m 1,0 h 1 m 1,0 h 6 m 1,0 h 3 m 7,0 h 2 m 2,0 h 2 m 3,0 h 1 m 17,0 h 3 m 1,0 h 7 m 1,0 h 4 M 0,73 h 23 m 1,0 h 1 m 1,0 h 4 m 7,0 h 3 m 1,0 h 2 m 4,0 h 19 m 1,0 h 10 m 8,0 h 2 m 2,0 h 2 m 24,0 h 13 M 0,74 h 27 m 10,0 h 2 m 2,0 h 2 m 5,0 h 29 m 8,0 h 6 m 27,0 h 10 M 0,75 h 22 m 15,0 h 2 m 1,0 h 3 m 7,0 h 4 m 1,0 h 21 m 10,0 h 4 m 29,0 h 9 M 0,76 h 3 m 1,0 h 8 m 1,0 h 7 m 17,0 h 6 m 10,0 h 23 m 44,0 h 8 M 0,77 h 2 m 1,0 h 1 m 1,0 h 13 m 20,0 h 4 m 15,0 h 19 m 44,0 h 8 M 0,78 h 3 m 1,0 h 12 m 44,0 h 16 m 45,0 h 7 M 0,79 h 14 m 48,0 h 14 m 45,0 h 3 m 1,0 h 3 M 0,80 h 13 m 44,0 h 2 m 3,0 h 13 m 46,0 h 4 m 1,0 h 2 M 0,81 h 12 m 47,0 h 1 m 3,0 h 12 m 38,0 h 1 m 8,0 h 6 M 0,82 h 11 m 44,0 h 2 m 3,0 h 1 m 2,0 h 12 m 37,0 h 1 m 9,0 h 6 M 0,83 h 10 m 47,0 h 1 m 2,0 h 1 m 3,0 h 4 m 1,0 h 6 m 36,0 h 1 m 10,0 h 6 M 0,84 h 10 m 42,0 h 4 m 2,0 h 1 m 5,0 h 3 m 1,0 h 7 m 38,0 h 4 m 5,0 h 6 M 0,85 h 1 m 1,0 h 7 m 42,0 h 3 m 1,0 h 2 m 1,0 h 1 m 5,0 h 2 m 1,0 h 7 m 38,0 h 6 m 4,0 h 6 M 1,86 h 8 m 42,0 h 2 m 2,0 h 2 m 7,0 h 10 m 38,0 h 2 m 2,0 h 2 m 4,0 h 6 M 0,87 h 6 m 1,0 h 1 m 43,0 h 2 m 1,0 h 3 m 7,0 h 10 m 38,0 h 2 m 2,0 h 2 m 3,0 h 4 m 1,0 h 2 M 0,88 h 8 m 6,0 h 1 m 36,0 h 6 m 6,0 h 10 m 39,0 h 6 m 3,0 h 3 m 1,0 h 3 M 0,89 h 8 m 8,0 h 1 m 1,0 h 1 m 1,0 h 1 m 31,0 h 4 m 7,0 h 10 m 40,0 h 4 m 4,0 h 7 M 0,90 h 8 m 12,0 h 1 m 41,0 h 10 m 49,0 h 7 M 0,91 h 9 m 7,0 h 1 m 3,0 h 1 m 1,0 h 1 m 39,0 h 10 m 48,0 h 8 M 0,92 h 9 m 5,0 h 1 m 3,0 h 1 m 42,0 h 10 m 49,0 h 8 M 0,93 h 10 m 6,0 h 1 m 3,0 h 1 m 38,0 h 12 m 49,0 h 8 M 0,94 h 10 m 8,0 h 1 m 39,0 h 13 m 49,0 h 8 M 0,95 h 2 m 1,0 h 7 m 6,0 h 1 m 1,0 h 1 m 39,0 h 13 m 49,0 h 6 m 1,0 h 1 M 0,96 h 9 m 49,0 h 13 m 48,0 h 6 m 1,0 h 1 M 0,97 h 9 m 50,0 h 6 m 1,0 h 6 m 9,0 h 2 m 3,0 h 1 m 2,0 h 3 m 27,0 h 7 m 1,0 h 1 M 0,98 h 8 m 51,0 h 7 m 1,0 h 5 m 9,0 h 2 m 36,0 h 9 M 0,99 h 8 m 6,0 h 1 m 45,0 h 13 m 8,0 h 1 m 37,0 h 9 M 0,100 h 8 m 53,0 h 12 m 13,0 h 1 m 3,0 h 1 m 28,0 h 9 M 0,101 h 8 m 52,0 h 11 m 1,0 h 2 m 12,0 h 1 m 8,0 h 1 m 22,0 h 10 M 0,102 h 9 m 52,0 h 11 m 1,0 h 2 m 7,0 h 1 m 35,0 h 10 M 0,103 h 11 m 49,0 h 13 m 1,0 h 2 m 42,0 h 10 M 0,104 h 2 m 1,0 h 1 m 1,0 h 8 m 46,0 h 18 m 13,0 h 1 m 27,0 h 5 m 1,0 h 1 m 1,0 h 1 M 0,105 h 3 m 1,0 h 12 m 43,0 h 19 m 12,0 h 1 m 27,0 h 6 m 1,0 h 1 m 1,0 h 1 M 0,106 h 2 m 1,0 h 1 m 1,0 h 13 m 40,0 h 22 m 10,0 h 1 m 26,0 h 6 m 1,0 h 1 m 1,0 h 1 M 0,107 h 19 m 38,0 h 10 m 1,0 h 1 m 1,0 h 1 m 1,0 h 1 m 1,0 h 1 m 1,0 h 6 m 35,0 h 11 M 0,108 h 20 m 36,0 h 12 m 1,0 h 1 m 1,0 h 1 m 1,0 h 1 m 1,0 h 9 m 33,0 h 11 M 0,109 h 14 m 1,0 h 5 m 34,0 h 13 m 1,0 h 1 m 1,0 h 1 m 1,0 h 1 m 1,0 h 1 m 1,0 h 11 m 29,0 h 12 M 0,110 h 13 m 1,0 h 1 m 1,0 h 5 m 29,0 h 41 m 23,0 h 14 M 0,111 h 14 m 1,0 h 6 m 25,0 h 49 m 17,0 h 16 M 0,112 h 7 m 1,0 h 14 m 18,0 h 23 m 1,0 h 36 m 10,0 h 11 m 1,0 h 6 M 0,113 h 6 m 1,0 h 1 m 1,0 h 13 m 17,0 h 13 m 1,0 h 11 m 1,0 h 39 m 1,0 h 1 m 1,0 h 13 m 1,0 h 1 m 1,0 h 5 M 0,114 h 5 m 1,0 h 1 m 1,0 h 1 m 1,0 h 13 m 14,0 h 46 m 1,0 h 1 m 1,0 h 33 m 1,0 h 1 m 1,0 h 1 m 1,0 h 4 M 0,115 h 6 m 1,0 h 1 m 1,0 h 1 m 1,0 h 5 m 1,0 h 8 m 10,0 h 49 m 1,0 h 33 m 1,0 h 1 m 1,0 h 1 m 1,0 h 5 M 1,116 h 6 m 1,0 h 1 m 1,0 h 1 m 1,0 h 5 m 1,0 h 9 m 5,0 h 51 m 1,0 h 1 m 1,0 h 31 m 1,0 h 1 m 1,0 h 1 m 1,0 h 5 M 0,117 h 8 m 1,0 h 1 m 1,0 h 13 m 1,0 h 48 m 1,0 h 30 m 1,0 h 1 m 1,0 h 1 m 1,0 h 9 m 1,0 h 1 m 1,0 h 7 M 0,118 h 9 m 1,0 h 15 m 1,0 h 32 m 1,0 h 1 m 1,0 h 11 m 1,0 h 20 m 1,0 h 25 m 1,0 h 8 M 0,119 h 41 m 1,0 h 1 m 1,0 h 48 m 1,0 h 1 m 1,0 h 33 M 0,120 h 42 m 1,0 h 15 m 1,0 h 1 m 1,0 h 32 m 1,0 h 1 m 1,0 h 32 M 0,121 h 41 m 1,0 h 1 m 1,0 h 50 m 1,0 h 1 m 1,0 h 31 M 0,122 h 42 m 1,0 h 52 m 1,0 h 32 M 0,123 h 3 m 1,0 h 12 m 1,0 h 1 m 1,0 h 1 m 1,0 h 1 m 1,0 h 18 m 1,0 h 1 m 1,0 h 38 m 1,0 h 1 m 1,0 h 29 m 1,0 h 8 m 1,0 h 1 m 1,0 h 2 M 0,124 h 4 m 1,0 h 12 m 1,0 h 1 m 1,0 h 1 m 1,0 h 11 m 1,0 h 8 m 1,0 h 8 m 1,0 h 61 m 1,0 h 1 m 1,0 h 8 m 1,0 h 3 M 0,125 h 16 m 1,0 h 1 m 1,0 h 1 m 1,0 h 1 m 1,0 h 9 m 1,0 h 8 m 1,0 h 1 m 1,0 h 8 m 1,0 h 12 m 1,0 h 1 m 1,0 h 1 m 1,0 h 1 m 1,0 h 10 m 1,0 h 1 m 1,0 h 18 m 1,0 h 10 m 1,0 h 8 m 1,0 h 1 m 1,0 h 2 M 0,126 h 66 m 1,0 h 1 m 1,0 h 1 m 1,0 h 53 m 1,0 h 3 M 0,127 h 10 m 1,0 h 54 m 1,0 h 1 m 1,0 h 1 m 1,0 h 1 m 1,0 h 24 m 1,0 h 1 m 1,0 h 24 m 1,0 h 1 m 1,0 h 2"
       id="path1" /><path
       stroke="#ffffff"
       d="m 3,0 h 1 m 10,0 h 1 m 1,0 h 1 m 34,0 h 1 m 1,0 h 1 m 14,0 h 1 m 21,0 h 1 m 29,0 h 1 m 1,0 h 1 M 2,1 h 1 m 28,0 h 1 m 1,0 h 1 m 8,0 h 1 m 26,0 h 1 m 19,0 h 1 m 20,0 h 1 m 1,0 h 1 M 23,2 h 1 m 1,0 h 1 m 15,0 h 1 m 1,0 h 1 m 7,0 h 1 m 1,0 h 1 m 34,0 h 1 m 13,0 h 1 m 8,0 h 1 M 24,3 h 1 m 17,0 h 1 m 1,0 h 1 m 15,0 h 1 m 16,0 h 1 m 32,0 h 1 m 1,0 h 1 M 15,4 h 1 m 7,0 h 1 m 1,0 h 1 m 17,0 h 1 m 1,0 h 1 m 13,0 h 1 m 1,0 h 1 m 14,0 h 1 m 1,0 h 1 M 14,5 h 1 m 29,0 h 1 m 13,0 h 1 m 1,0 h 1 m 1,0 h 1 m 12,0 h 1 m 1,0 h 1 m 45,0 h 1 m 1,0 h 1 m 1,0 h 1 M 6,6 h 1 m 6,0 h 1 m 43,0 h 1 m 1,0 h 1 m 1,0 h 1 m 14,0 h 1 m 20,0 h 1 m 26,0 h 1 m 1,0 h 1 M 5,7 h 1 m 1,0 h 1 m 48,0 h 1 m 1,0 h 1 m 1,0 h 1 m 28,0 h 1 m 6,0 h 1 m 1,0 h 1 m 6,0 h 1 m 1,0 h 1 m 15,0 h 1 m 1,0 h 1 m 1,0 h 1 M 4,8 h 1 m 1,0 h 1 m 24,0 h 1 m 25,0 h 1 m 1,0 h 1 m 28,0 h 1 m 1,0 h 1 m 6,0 h 1 m 8,0 h 1 M 3,9 h 1 m 1,0 h 1 m 25,0 h 1 m 8,0 h 1 m 1,0 h 1 m 1,0 h 1 m 13,0 h 1 m 28,0 h 1 m 1,0 h 1 m 1,0 h 1 m 13,0 h 1 m 1,0 h 1 M 4,10 h 1 m 23,0 h 1 m 2,0 h 1 m 2,0 h 1 m 6,0 h 1 m 1,0 h 1 m 23,0 h 1 m 1,0 h 1 m 18,0 h 1 m 1,0 h 1 m 1,0 h 1 m -64,1 h 1 m 3,0 h 1 m 6,0 h 1 m 1,0 h 1 m 1,0 h 1 m 23,0 h 1 m 20,0 h 1 m 1,0 h 1 m 1,0 h 1 m -27,1 h 1 m 1,0 h 1 m 20,0 h 1 m 1,0 h 1 m 23,0 h 1 m -39,1 h 1 m 1,0 h 1 m 10,0 h 1 m 23,0 h 1 m 1,0 h 1 m -4,1 h 1 m 1,0 h 1 m 1,0 h 1 m -64,1 h 1 m 59,0 h 1 m 1,0 h 1 m 1,0 h 1 m -84,1 h 1 m 1,0 h 1 m 1,0 h 1 m 13,0 h 1 m 1,0 h 1 m 59,0 h 1 m 1,0 h 1 m 1,0 h 1 M 0,17 h 1 m 1,0 h 1 m 52,0 h 1 m 61,0 h 1 m 1,0 h 1 M 1,18 h 1 m 80,0 h 1 m 35,0 h 1 m 8,0 h 1 M 0,19 h 1 m 1,0 h 1 m 78,0 h 2 m -2,1 h 1 m -34,1 h 2 m 11,0 h 1 m -40,1 h 2 m 24,0 h 2 m 63,0 h 1 m -92,1 h 2 m 38,0 h 1 m 52,0 h 1 m 5,1 h 1 m -2,1 h 1 m 1,0 h 1 m -48,1 h 1 m 45,0 h 1 m 1,0 h 1 m -50,1 h 2 m 46,0 h 1 M 2,28 h 1 m 71,0 h 1 M 3,29 h 1 m 0,1 h 1 m 8,2 h 1 m 1,0 h 1 m 109,2 h 1 m 1,0 h 1 m -2,1 h 1 m -2,1 h 1 m 1,0 h 1 m -2,1 h 1 M 7,38 h 1 m 1,0 h 1 m 1,0 h 1 m 1,0 h 1 m 111,0 h 1 m 1,0 h 1 M 8,39 h 1 m 1,0 h 1 m 1,0 h 1 m 55,0 h 1 M 7,40 h 1 m 1,0 h 1 m 1,0 h 1 m 1,0 h 1 m 107,2 h 1 m -2,1 h 1 m -53,2 h 1 m -58,1 h 1 m 1,0 h 1 m 109,0 h 1 m -2,1 h 1 m 1,0 h 1 M 2,48 h 1 m 8,0 h 1 m 1,0 h 1 m 107,0 h 1 m 1,0 h 1 m 1,0 h 1 m -4,1 h 1 m 1,0 h 1 m -2,1 h 1 m -60,1 h 1 m 1,0 h 1 m -2,1 h 1 m 52,0 h 1 m -55,1 h 1 m 1,0 h 1 m 50,0 h 1 m 1,0 h 1 M 6,54 h 1 m 58,0 h 1 m 52,0 h 1 M 5,55 h 1 m 1,0 h 1 m 48,0 h 1 m 7,0 h 1 m 1,0 h 1 M 4,56 h 1 m 1,0 h 1 m 1,0 h 1 m 6,0 h 1 m 5,0 h 1 m 33,0 h 1 m 9,0 h 1 M 3,57 h 1 m 1,0 h 1 m 1,0 h 1 m 6,0 h 1 m 5,0 h 1 m 1,0 h 1 m 41,0 h 1 m 1,0 h 1 m 43,0 h 1 M 4,58 h 1 m 1,0 h 1 m 14,0 h 1 m 1,0 h 1 m 41,0 h 1 m 9,0 h 1 m 1,0 h 1 m 1,0 h 1 m 1,0 h 1 m 1,0 h 1 m 25,0 h 1 M 5,59 h 1 m 16,0 h 1 m 41,0 h 1 m 1,0 h 1 m 9,0 h 1 m 1,0 h 1 m 1,0 h 1 m 1,0 h 1 m 42,0 h 1 m -51,1 h 1 m 1,0 h 1 m 1,0 h 1 m 1,0 h 1 m 1,0 h 1 M 0,61 h 1 m 92,0 h 1 m 20,0 h 1 m 10,0 h 1 M 1,62 h 1 m 90,0 h 1 m 1,0 h 1 m 18,0 h 1 m 1,0 h 1 M 0,63 h 1 m 16,0 h 1 m 11,0 h 1 m 19,0 h 1 m 43,0 h 1 m 1,0 h 1 m 16,0 h 1 m 1,0 h 1 m 1,0 h 1 M 11,64 h 1 m 4,0 h 1 m 1,0 h 1 m 9,0 h 1 m 1,0 h 1 m 17,0 h 1 m 1,0 h 1 m 43,0 h 1 m 1,0 h 1 m 7,0 h 1 m 8,0 h 1 m 1,0 h 1 M 10,65 h 1 m 4,0 h 1 m 1,0 h 1 m 1,0 h 1 m 7,0 h 1 m 1,0 h 1 m 19,0 h 1 m 45,0 h 1 m 7,0 h 1 m 1,0 h 1 m 8,0 h 1 M 9,66 h 1 m 4,0 h 1 m 1,0 h 1 m 1,0 h 1 m 9,0 h 1 m 34,0 h 1 m 20,0 h 1 m 1,0 h 1 m 1,0 h 1 m 15,0 h 1 M 4,67 h 1 m 8,0 h 1 m 1,0 h 1 m 1,0 h 1 m 44,0 h 1 m 1,0 h 1 m -53,1 h 1 m 1,0 h 1 m 1,0 h 1 m 36,0 h 1 m 1,0 h 1 m 5,0 h 1 m 1,0 h 1 m 1,0 h 1 m 59,0 h 1 M 13,69 h 1 m 1,0 h 1 m 46,0 h 1 m 1,0 h 1 m 1,0 h 1 m 57,0 h 1 m 1,0 h 1 M 14,70 h 1 m 38,0 h 1 m 1,0 h 1 m 7,0 h 1 m 1,0 h 1 m 1,0 h 1 m 7,0 h 1 m 47,0 h 1 m 1,0 h 1 m -62,1 h 1 m 1,0 h 1 m 1,0 h 1 m 53,0 h 1 m 1,0 h 1 m -60,1 h 1 m 1,0 h 1 m 6,0 h 1 m 12,0 h 2 m 26,0 h 1 m 7,0 h 1 M 23,73 h 1 m 1,0 h 1 m 14,0 h 1 m 25,0 h 1 m 20,0 h 2 m -50,1 h 2 m -2,1 h 1 m 14,0 h 1 M 3,76 h 1 m 8,0 h 1 M 2,77 h 1 m 1,0 h 1 m -2,1 h 1 m 120,1 h 1 m 0,1 h 1 m -58,3 h 1 m -2,1 h 1 M 1,85 h 1 m 52,0 h 1 m 11,0 h 1 M 0,86 h 1 m 52,0 h 2 m 59,0 h 2 M 6,87 h 1 m 46,0 h 1 m 60,0 h 2 m 9,0 h 1 m -2,1 h 1 M 2,95 h 1 m 123,0 h 1 m -2,1 h 1 m 1,0 h 1 m -63,1 h 1 m 60,0 h 1 m -61,1 h 1 m 4,3 h 1 m 0,1 h 1 m 0,1 h 1 m -72,1 h 1 m 1,0 h 1 m 118,0 h 1 m 1,0 h 1 m 1,0 h 1 M 3,105 h 1 m 113,0 h 1 m 6,0 h 1 m 1,0 h 1 M 2,106 h 1 m 1,0 h 1 m 118,0 h 1 m 1,0 h 1 m 1,0 h 1 m -61,1 h 1 m 1,0 h 1 m 1,0 h 1 m 1,0 h 1 m 1,0 h 1 m -8,1 h 1 m 1,0 h 1 m 1,0 h 1 m 1,0 h 1 m -61,1 h 1 m 52,0 h 1 m 1,0 h 1 m 1,0 h 1 m 1,0 h 1 m 1,0 h 1 m -63,1 h 1 m 1,0 h 1 m -2,1 h 1 m -8,1 h 1 m 55,0 h 1 m 57,0 h 1 M 6,113 h 1 m 1,0 h 1 m 43,0 h 1 m 11,0 h 1 m 55,0 h 1 m 1,0 h 1 M 5,114 h 1 m 1,0 h 1 m 1,0 h 1 m 73,0 h 1 m 1,0 h 1 m 33,0 h 1 m 1,0 h 1 m 1,0 h 1 M 6,115 h 1 m 1,0 h 1 m 1,0 h 1 m 5,0 h 1 m 67,0 h 1 m 33,0 h 1 m 1,0 h 1 m 1,0 h 1 M 0,116 h 1 m 6,0 h 1 m 1,0 h 1 m 1,0 h 1 m 5,0 h 1 m 65,0 h 1 m 1,0 h 1 m 31,0 h 1 m 1,0 h 1 m 1,0 h 1 m 5,0 h 1 M 8,117 h 1 m 1,0 h 1 m 13,0 h 1 m 48,0 h 1 m 30,0 h 1 m 1,0 h 1 m 1,0 h 1 m 9,0 h 1 m 1,0 h 1 M 9,118 h 1 m 15,0 h 1 m 32,0 h 1 m 1,0 h 1 m 11,0 h 1 m 20,0 h 1 m 25,0 h 1 m -79,1 h 1 m 1,0 h 1 m 48,0 h 1 m 1,0 h 1 m -53,1 h 1 m 15,0 h 1 m 1,0 h 1 m 32,0 h 1 m 1,0 h 1 m -55,1 h 1 m 1,0 h 1 m 50,0 h 1 m 1,0 h 1 m -55,1 h 1 m 52,0 h 1 m -93,1 h 1 m 12,0 h 1 m 1,0 h 1 m 1,0 h 1 m 1,0 h 1 m 18,0 h 1 m 1,0 h 1 m 38,0 h 1 m 1,0 h 1 m 29,0 h 1 m 8,0 h 1 m 1,0 h 1 M 4,124 h 1 m 12,0 h 1 m 1,0 h 1 m 1,0 h 1 m 11,0 h 1 m 8,0 h 1 m 8,0 h 1 m 61,0 h 1 m 1,0 h 1 m 8,0 h 1 m -109,1 h 1 m 1,0 h 1 m 1,0 h 1 m 1,0 h 1 m 9,0 h 1 m 8,0 h 1 m 1,0 h 1 m 8,0 h 1 m 12,0 h 1 m 1,0 h 1 m 1,0 h 1 m 1,0 h 1 m 10,0 h 1 m 1,0 h 1 m 18,0 h 1 m 10,0 h 1 m 8,0 h 1 m 1,0 h 1 m -60,1 h 1 m 1,0 h 1 m 1,0 h 1 m 53,0 h 1 m -115,1 h 1 m 54,0 h 1 m 1,0 h 1 m 1,0 h 1 m 1,0 h 1 m 24,0 h 1 m 1,0 h 1 m 24,0 h 1 m 1,0 h 1"
       id="path2" /><path
       stroke="#ff0000"
       d="m 15,10 h 5 m -6,1 h 8 m -9,1 h 11 m -12,1 h 14 m -14,1 h 16 m -17,1 h 19 m -19,1 h 7 m 2,0 h 12 m 14,0 h 4 m -39,1 h 6 m 1,0 h 17 m 7,0 h 10 m -42,1 h 6 m 1,0 h 3 m 2,0 h 31 m -43,1 h 6 m 1,0 h 2 m 1,0 h 27 m 4,0 h 3 m -44,1 h 8 m 1,0 h 2 m 4,0 h 21 m 6,0 h 3 m -45,1 h 8 m 1,0 h 1 m 6,0 h 20 m 6,0 h 5 m 43,0 h 4 m -94,1 h 10 m 6,0 h 20 m 6,0 h 6 m 39,0 h 8 m -94,1 h 9 m 6,0 h 4 m 4,0 h 12 m 6,0 h 7 m 33,0 h 14 m -95,1 h 9 m 6,0 h 3 m 6,0 h 12 m 4,0 h 8 m 24,0 h 23 m -94,1 h 9 m 4,0 h 3 m 10,0 h 21 m 23,0 h 24 m -93,1 h 15 m 14,0 h 18 m 21,0 h 25 m -91,1 h 13 m 20,0 h 12 m 21,0 h 25 m -89,1 h 11 m 21,0 h 11 m 21,0 h 24 m -86,1 h 9 m 22,0 h 10 m 21,0 h 22 m -83,1 h 8 m 22,0 h 11 m 20,0 h 19 m -80,1 h 8 m 22,0 h 11 m 20,0 h 14 m -74,1 h 7 m 22,0 h 11 m 20,0 h 11 m -72,1 h 8 m 21,0 h 9 m 1,0 h 2 m 20,0 h 9 m -69,1 h 7 m 8,0 h 1 m 11,0 h 8 m 1,0 h 4 m 20,0 h 9 m -70,1 h 8 m 8,0 h 17 m 2,0 h 2 m 1,0 h 3 m 20,0 h 9 m -69,1 h 7 m 8,0 h 19 m 1,0 h 2 m 1,0 h 2 m 20,0 h 9 m -69,1 h 7 m 8,0 h 9 m 2,0 h 1 m 2,0 h 1 m 3,0 h 2 m 1,0 h 4 m 21,0 h 8 m -70,1 h 8 m 10,0 h 1 m 2,0 h 1 m 2,0 h 1 m 10,0 h 2 m 1,0 h 2 m 22,0 h 9 m 1,0 h 2 m 1,0 h 2 m 1,0 h 2 m -80,1 h 8 m 28,0 h 1 m 1,0 h 2 m 22,0 h 21 m -83,1 h 8 m 28,0 h 4 m 22,0 h 23 m -86,1 h 9 m 28,0 h 4 m 22,0 h 24 m -87,1 h 9 m 28,0 h 3 m 23,0 h 25 m -88,1 h 9 m 27,0 h 4 m 23,0 h 26 m -89,1 h 9 m 26,0 h 5 m 23,0 h 27 m -90,1 h 9 m 21,0 h 10 m 23,0 h 28 m -91,1 h 9 m 8,0 h 7 m 1,0 h 14 m 24,0 h 8 m 7,0 h 13 m -90,1 h 8 m 8,0 h 7 m 1,0 h 14 m 24,0 h 8 m 9,0 h 11 m -90,1 h 8 m 8,0 h 7 m 1,0 h 13 m 24,0 h 9 m 11,0 h 9 m -89,1 h 7 m 8,0 h 7 m 1,0 h 13 m 24,0 h 9 m 12,0 h 8 m -89,1 h 7 m 8,0 h 7 m 1,0 h 12 m 25,0 h 9 m 13,0 h 6 m -87,1 h 6 m 8,0 h 7 m 1,0 h 12 m 25,0 h 9 m 14,0 h 4 m -84,1 h 4 m 8,0 h 7 m 1,0 h 11 m -28,1 h 1 m 8,0 h 7 m 1,0 h 11 m -19,1 h 7 m 1,0 h 10 m -18,1 h 18 m -18,1 h 17 m -17,1 h 7 m 1,0 h 7 m -12,1 h 4 m 1,0 h 5 m -7,1 h 5"
       id="path3" /><path
       stroke="#00ffff"
       d="m 98,13 h 3 m -5,1 h 8 m -26,1 h 6 m 11,0 h 11 m -31,1 h 12 m 8,0 h 12 m -34,1 h 7 m 4,0 h 5 m 4,0 h 14 m -36,1 h 8 m 6,0 h 23 m -38,1 h 9 m 6,0 h 23 m -38,1 h 9 m 6,0 h 24 m -40,1 h 10 m 6,0 h 15 m 4,0 h 5 m -40,1 h 11 m 4,0 h 13 m 8,0 h 5 m -42,1 h 24 m 14,0 h 6 m -44,1 h 5 m 4,0 h 6 m 23,0 h 8 m -46,1 h 4 m 6,0 h 4 m 24,0 h 10 m -48,1 h 4 m 6,0 h 3 m 25,0 h 11 m -48,1 h 3 m 6,0 h 3 m 25,0 h 12 m -49,1 h 3 m 6,0 h 3 m 24,0 h 13 m -48,1 h 3 m 4,0 h 4 m 23,0 h 2 m 2,0 h 11 m -49,1 h 11 m 19,0 h 3 m 1,0 h 15 m -48,1 h 10 m 14,0 h 8 m 1,0 h 15 m -48,1 h 10 m 11,0 h 16 m 1,0 h 10 m -47,1 h 9 m 9,0 h 19 m 1,0 h 9 m -47,1 h 9 m 9,0 h 28 m -46,1 h 9 m 9,0 h 13 m 1,0 h 3 m 1,0 h 10 m -46,1 h 9 m 9,0 h 17 m 1,0 h 9 m -46,1 h 11 m 8,0 h 28 m -47,1 h 11 m 9,0 h 1 m 2,0 h 1 m 2,0 h 1 m 2,0 h 17 m -46,1 h 11 m 21,0 h 15 m -48,1 h 12 m 23,0 h 12 m -47,1 h 12 m 24,0 h 11 m -47,1 h 12 m 25,0 h 10 m -47,1 h 12 m 26,0 h 9 m -47,1 h 12 m 27,0 h 7 m -45,1 h 11 m 28,0 h 6 m -45,1 h 11 m 8,0 h 7 m 13,0 h 5 m -44,1 h 11 m 8,0 h 9 m 11,0 h 4 m -42,1 h 9 m 9,0 h 11 m 9,0 h 4 m -42,1 h 9 m 9,0 h 12 m 8,0 h 4 m -40,1 h 7 m 9,0 h 10 m 1,0 h 2 m 6,0 h 4 m -34,1 h 2 m 9,0 h 10 m 1,0 h 3 m 4,0 h 5 m -23,1 h 8 m 1,0 h 2 m 1,0 h 10 m -21,1 h 7 m 1,0 h 3 m 2,0 h 8 m -19,1 h 6 m 1,0 h 11 m -16,1 h 5 m 2,0 h 8 m -13,1 h 12 m -10,1 h 9 m -7,1 h 5 m -4,1 h 1 m 1,0 h 1"
       id="path4" /><path
       stroke="#0000ff"
       d="m 30,23 h 4 m -5,1 h 6 m -7,1 h 10 m -10,1 h 14 m -14,1 h 20 m -20,1 h 21 m -21,1 h 22 m -22,1 h 22 m -22,1 h 22 m -22,1 h 22 m -22,1 h 21 m -21,1 h 8 m 1,0 h 11 m -20,1 h 8 m -8,1 h 8 m -8,1 h 8 m 9,0 h 2 m 1,0 h 2 m 1,0 h 3 m -26,1 h 10 m 1,0 h 2 m 1,0 h 2 m 1,0 h 10 m -27,1 h 28 m -28,1 h 28 m -28,1 h 28 m -28,1 h 28 m -28,1 h 27 m -27,1 h 26 m -26,1 h 21 m -21,1 h 8 m 7,0 h 1 m -16,1 h 8 m 7,0 h 1 m -16,1 h 8 m 7,0 h 1 m -16,1 h 8 m 7,0 h 1 m -16,1 h 8 m 7,0 h 1 m -16,1 h 8 m 7,0 h 1 m -16,1 h 8 m 7,0 h 1 m -16,1 h 8 m 7,0 h 1 m -14,1 h 6 m 7,0 h 1 m -12,1 h 4 m -2,1 h 2"
       id="path5" /><path
       stroke="#ff00ff"
       d="m 83,68 h 11 m -13,1 h 17 m -18,1 h 6 m 4,0 h 2 m 1,0 h 9 m -24,1 h 7 m 6,0 h 2 m 1,0 h 9 m 1,0 h 1 m 1,0 h 2 m -30,1 h 7 m 6,0 h 3 m 1,0 h 17 m -35,1 h 8 m 6,0 h 24 m -38,1 h 8 m 6,0 h 27 m -42,1 h 10 m 4,0 h 29 m -43,1 h 44 m -44,1 h 44 m -44,1 h 10 m 7,0 h 28 m -45,1 h 9 m 15,0 h 21 m -81,1 h 5 m 30,0 h 9 m 23,0 h 14 M 18,81 h 6 m 13,0 h 9 m 29,0 h 9 m 24,0 h 5 m 1,0 h 8 M 17,82 h 30 m 28,0 h 9 m 25,0 h 3 m 1,0 h 9 M 16,83 h 31 m 28,0 h 9 m 25,0 h 2 m 1,0 h 10 M 16,84 h 31 m 28,0 h 10 m 24,0 h 4 m 4,0 h 5 M 16,85 h 31 m 27,0 h 12 m 23,0 h 3 m 6,0 h 4 M 16,86 h 31 m 27,0 h 16 m 20,0 h 2 m 6,0 h 4 M 17,87 h 30 m 27,0 h 24 m 12,0 h 2 m 6,0 h 3 M 18,88 h 29 m 26,0 h 28 m 9,0 h 2 m 6,0 h 3 M 21,89 h 2 m 1,0 h 2 m 1,0 h 2 m 1,0 h 2 m 1,0 h 2 m 1,0 h 2 m 1,0 h 8 m 26,0 h 6 m 3,0 h 1 m 2,0 h 1 m 2,0 h 1 m 2,0 h 1 m 2,0 h 1 m 2,0 h 1 m 2,0 h 1 m 9,0 h 3 m 4,0 h 4 m -82,1 h 9 m 24,0 h 6 m 32,0 h 11 m -89,1 h 16 m 24,0 h 5 m 33,0 h 10 m -95,1 h 23 m 23,0 h 6 m 33,0 h 10 m -97,1 h 25 m 23,0 h 6 m 33,0 h 10 m -99,1 h 27 m 23,0 h 6 m 33,0 h 10 M 19,95 h 29 m 23,0 h 7 m 33,0 h 9 M 18,96 h 30 m 23,0 h 9 m 31,0 h 8 M 17,97 h 31 m 24,0 h 9 m 2,0 h 3 m 1,0 h 2 m 3,0 h 10 m 9,0 h 8 M 16,98 h 33 m 23,0 h 9 m 2,0 h 20 m 9,0 h 7 M 16,99 h 33 m 24,0 h 8 m 1,0 h 21 m 9,0 h 7 m -103,1 h 13 m 10,0 h 10 m 24,0 h 13 m 1,0 h 3 m 1,0 h 12 m 9,0 h 7 m -103,1 h 11 m 13,0 h 9 m 25,0 h 12 m 1,0 h 8 m 1,0 h 8 m 9,0 h 5 m -101,1 h 9 m 14,0 h 9 m 26,0 h 7 m 1,0 h 21 m 9,0 h 5 m -100,1 h 6 m 16,0 h 10 m 26,0 h 28 m 10,0 h 4 m -77,1 h 9 m 27,0 h 13 m 1,0 h 13 m 10,0 h 4 m -77,1 h 10 m 27,0 h 12 m 1,0 h 14 m 10,0 h 2 m -76,1 h 10 m 29,0 h 10 m 1,0 h 14 m 11,0 h 1 m -76,1 h 11 m 30,0 h 24 m -64,1 h 12 m 30,0 h 22 m -64,1 h 12 m 33,0 h 20 m -65,1 h 8 m 41,0 h 16 m -65,1 h 4 m 49,0 h 13 m -8,1 h 9 m -5,1 h 1 m 1,0 h 1"
       id="path6" /><path
       stroke="#ffff00"
       d="m 36,69 h 6 m -8,1 h 10 m -11,1 h 12 m -13,1 h 6 m 4,0 h 4 m -16,1 h 7 m 6,0 h 4 m -20,1 h 10 m 6,0 h 5 m -26,1 h 15 m 6,0 h 7 m -30,1 h 17 m 6,0 h 10 m -35,1 h 20 m 4,0 h 15 m -41,1 h 44 m -46,1 h 48 m -49,1 h 27 m 5,0 h 12 m 2,0 h 3 m -50,1 h 6 m 6,0 h 13 m 9,0 h 13 m 1,0 h 3 m -52,1 h 6 m 30,0 h 8 m 2,0 h 3 m 1,0 h 2 m -53,1 h 6 m 31,0 h 10 m 1,0 h 2 m 1,0 h 3 m -54,1 h 6 m 31,0 h 5 m 4,0 h 2 m 1,0 h 5 M 9,85 h 7 m 31,0 h 4 m 6,0 h 1 m 1,0 h 5 M 9,86 h 7 m 31,0 h 4 m 6,0 h 7 M 8,87 h 9 m 30,0 h 4 m 6,0 h 7 M 8,88 h 6 m 1,0 h 3 m 29,0 h 4 m 6,0 h 6 M 8,89 h 8 m 1,0 h 1 m 1,0 h 1 m 3,0 h 1 m 2,0 h 1 m 2,0 h 1 m 2,0 h 1 m 2,0 h 1 m 2,0 h 1 m 8,0 h 5 m 4,0 h 7 M 8,90 h 12 m 1,0 h 18 m 9,0 H 62 M 9,91 h 7 m 1,0 h 3 m 1,0 h 1 m 1,0 h 9 m 16,0 H 62 M 9,92 h 5 m 1,0 h 3 m 1,0 h 6 m 23,0 h 13 m -51,1 h 6 m 1,0 h 3 m 1,0 h 2 m 25,0 h 11 m -49,1 h 8 m 1,0 h 2 m 27,0 h 10 m -48,1 h 6 m 1,0 h 1 m 30,0 H 58 M 9,96 h 9 m 30,0 H 58 M 9,97 h 8 m 31,0 H 59 M 8,98 h 8 m 33,0 H 59 M 8,99 h 6 m 1,0 h 1 m 33,0 h 11 m -52,1 h 8 m 13,0 h 10 m 10,0 h 12 m -53,1 h 8 m 11,0 h 13 m 9,0 h 11 m -51,1 h 8 m 9,0 h 14 m 9,0 h 12 m -50,1 h 7 m 6,0 h 16 m 10,0 h 10 m -47,1 h 28 m 9,0 h 9 m -43,1 h 25 m 10,0 h 8 m -41,1 h 23 m 10,0 h 7 m -39,1 h 22 m 11,0 h 5 m -37,1 h 22 m 12,0 h 2 m -36,1 h 22 m -21,1 h 21 m -21,1 h 21 m -20,1 h 18 m -18,1 h 17 m -16,1 h 14 m -12,1 h 10 m -8,1 h 5"
       id="path7" /><path
       stroke="#00ff00"
       d="m 86,78 h 7 m -8,1 h 15 m -16,1 h 23 m -23,1 h 24 m -24,1 h 25 m -25,1 h 25 m -24,1 h 24 m -23,1 h 23 m -19,1 h 20 m -12,1 h 12 m -9,1 h 9 m -31,1 h 3 m 1,0 h 2 m 1,0 h 2 m 1,0 h 2 m 1,0 h 2 m 1,0 h 2 m 1,0 h 2 m 1,0 h 9 m -32,1 h 32 m -33,1 h 33 m -33,1 h 33 m -33,1 h 33 m -33,1 h 33 m -32,1 h 33 m -31,1 h 31 m -9,1 h 9 m -8,1 h 9 m -9,1 h 9 m -9,1 h 9 m -8,1 h 9 m -9,1 h 9 m -9,1 h 10 m -10,1 h 10 m -9,1 h 10 m -10,1 h 11 m -10,1 h 11 m -11,1 h 11 m -10,1 h 9 m -9,1 h 7 m -6,1 h 4 m -3,1 h 1"
       id="path8" /></g><circle
     style="fill:#7b2ab4;fill-opacity:1;fill-rule:evenodd;stroke:#ffffff;stroke-width:71.7471;stroke-dasharray:none;stroke-opacity:1;paint-order:markers stroke fill"
     id="path9"
     cx="2231.2048"
     cy="2189.3877"
     r="294.92148" /><g
     style="shape-rendering:crispEdges"
     id="g1"
     transform="matrix(20.140135,-12.336153,12.336153,20.140134,1977.5626,2140.9279)"><path
       stroke="#ffffff"
       d="m 5,3.0000006 h 2 m -4,1 h 4 m 6,0 h 1 m -13,1 h 6 m 2,0 h 2 m 3,0 h 1 m -14,1 h 6 m 4,0 h 1 m 2,0 h 1 m -14,1 h 6 m 4,0 h 1 m 2,0 h 1 m -14,1 h 6 m 4,0 h 1 m 2,0 h 1 m -14,1 h 6 m 4,0 h 1 m 2,0 h 1 M 1,10 h 6 m 2,0 h 2 m 3,0 h 1 M 3,11 h 4 m 6,0 h 1 m -9,1 h 2"
       id="path1-5" /></g></svg>
