<svg xmlns="http://www.w3.org/2000/svg" viewBox="0 0 16 16" shape-rendering="crispEdges">
<metadata>Made with Pixels to Svg https://codepen.io/shshaw/pen/XbxvNj</metadata>
<path stroke="#ffffff" d="M4 0h8M4 1h1M11 1h1M1 2h14M0 3h16M0 4h16M0 5h2M3 5h1M5 5h6M12 5h1M14 5h2M0 6h16M0 7h2M3 7h1M5 7h6M12 7h1M14 7h2M0 8h16M0 9h16M0 10h16M0 11h3M5 11h6M13 11h3M0 12h5M11 12h5M0 13h16M0 14h16M1 15h14" />
<path stroke="#000000" d="M2 5h1M4 5h1M11 5h1M13 5h1M2 7h1M4 7h1M11 7h1M13 7h1M3 11h2M11 11h2M5 12h6" />
</svg>