<?xml version="1.0" encoding="UTF-8" standalone="no"?>
<svg
   viewBox="0 -0.5 16 16"
   shape-rendering="crispEdges"
   version="1.1"
   id="svg1"
   sodipodi:docname="high.svg"
   inkscape:export-filename="/Users/joeymariano/Desktop/high.png"
   inkscape:export-xdpi="12000"
   inkscape:export-ydpi="12000"
   inkscape:version="1.4.2 (ebf0e940, 2025-05-08)"
   xmlns:inkscape="http://www.inkscape.org/namespaces/inkscape"
   xmlns:sodipodi="http://sodipodi.sourceforge.net/DTD/sodipodi-0.dtd"
   xmlns="http://www.w3.org/2000/svg"
   xmlns:svg="http://www.w3.org/2000/svg">
  <defs
     id="defs1" />
  <sodipodi:namedview
     id="namedview1"
     pagecolor="#000000"
     bordercolor="#000000"
     borderopacity="0.25"
     inkscape:showpageshadow="2"
     inkscape:pageopacity="0.0"
     inkscape:pagecheckerboard="0"
     inkscape:deskcolor="#d1d1d1"
     inkscape:export-bgcolor="#000000ff"
     inkscape:zoom="18.384776"
     inkscape:cx="7.3158356"
     inkscape:cy="7.5062105"
     inkscape:window-width="1336"
     inkscape:window-height="753"
     inkscape:window-x="0"
     inkscape:window-y="25"
     inkscape:window-maximized="0"
     inkscape:current-layer="svg1" />
  <metadata
     id="metadata1">Made with Pixels to Svg https://codepen.io/shshaw/pen/XbxvNj</metadata>
  <path
     stroke="#ffffff"
     d="M5 3h2M3 4h4M13 4h1M1 5h6M9 5h2M14 5h1M1 6h6M11 6h1M14 6h1M1 7h6M11 7h1M14 7h1M1 8h6M11 8h1M14 8h1M1 9h6M11 9h1M14 9h1M1 10h6M9 10h2M14 10h1M3 11h4M13 11h1M5 12h2"
     id="path1" />
</svg>
